#Comment line ignore any data following # character 
#Hierarchical Translation and Rotation (.htr) file 
[Header]	
#Header keywords are followed by a single value 
FileType HTR		#Single word string
DataType HTRS		#Translation followed by rotation and scale data
FileVersion 1		#integer
NumSegments 64		#integer
NumFrames 2		#integer
DataFrameRate 30		#integer, data frame rate in this file
EulerRotationOrder ZYX
CalibrationUnits mm
RotationUnits Degrees
GlobalAxisofGravity Y
BoneLengthAxis Y
ScaleFactor 1.00
[SegmentNames&Hierarchy]
#CHILD	PARENT
Pinger_Root GLOBAL
Pelvis Pinger_Root
L_Hip Pelvis
R_Hip Pelvis
Rear_Leg01 Pelvis
Spine1 Pelvis
L_Leg01 L_Hip
L_Leg02 L_Leg01
L_Leg03 L_Leg02
L_Foot L_Leg03
L_Toe1_01 L_Foot
L_Toe2_01 L_Foot
L_Toe3_01 L_Foot
planeAlignerLeft L_Foot
L_Toe1_02 L_Toe1_01
L_Toe1_03 L_Toe1_02
L_Toe2_02 L_Toe2_01
L_Toe2_03 L_Toe2_02
L_Toe3_02 L_Toe3_01
L_Toe3_03 L_Toe3_02
planeLockWeightLeft planeAlignerLeft
R_Leg01 R_Hip
R_Leg02 R_Leg01
R_Leg03 R_Leg02
R_Foot R_Leg03
planeAlignerRight R_Foot
R_Toe1_01 R_Foot
R_Toe2_01 R_Foot
R_Toe3_01 R_Foot
planeLockWeightRight planeAlignerRight
R_Toe1_02 R_Toe1_01
R_Toe1_03 R_Toe1_02
R_Toe2_02 R_Toe2_01
R_Toe2_03 R_Toe2_02
R_Toe3_02 R_Toe3_01
R_Toe3_03 R_Toe3_02
Rear_Leg02 Rear_Leg01
Rear_Leg03 Rear_Leg02
Rear_Leg04 Rear_Leg03
Rear_Foot Rear_Leg04
planeAlignerCenter Rear_Foot
Rear_Toe1_01 Rear_Foot
Rear_Toe2_01 Rear_Foot
Rear_Toe3_01 Rear_Foot
planeLockWeightCenter planeAlignerCenter
Rear_Toe1_02 Rear_Toe1_01
Rear_Toe1_03 Rear_Toe1_02
Rear_Toe2_02 Rear_Toe2_01
Rear_Toe2_03 Rear_Toe2_02
Rear_Toe3_02 Rear_Toe3_01
Rear_Toe3_03 Rear_Toe3_02
Back_Bone Spine1
Head Spine1
Motor_Bone Back_Bone
Ping_Mechanism Back_Bone
BN_LookIK Head
bottomMouth Head
L_Mouth01 Head
L_mouthFront Head
mouthGun Head
R_Mouth01 Head
R_mouthFront Head
TopMouth Head
weapon_bone Head
[BasePosition]
#SegmentName Tx, Ty, Tz, Rx, Ry, Rz, BoneLength
Pinger_Root 0.000000 0.000000 0.000000 -90.000000 0.000000 0.000000 10.000000 
Pelvis 0.000000 0.000000 0.000000 0.000000 0.000000 0.000000 10.000000 
L_Hip 0.000000 0.000000 0.000000 0.000000 0.000000 0.000000 10.000000 
R_Hip 0.000000 0.000000 0.000000 0.000000 0.000000 0.000000 10.000000 
Rear_Leg01 0.000000 0.000000 0.000000 0.000000 0.000000 0.000000 10.000000 
Spine1 0.000000 0.000000 0.000000 0.000000 0.000000 0.000000 10.000000 
L_Leg01 0.000000 0.000000 0.000000 0.000000 0.000000 0.000000 10.000000 
L_Leg02 0.000000 0.000000 0.000000 0.000000 0.000000 0.000000 10.000000 
L_Leg03 0.000000 0.000000 0.000000 0.000000 0.000000 0.000000 10.000000 
L_Foot 0.000000 0.000000 0.000000 0.000000 0.000000 0.000000 10.000000 
L_Toe1_01 0.000000 0.000000 0.000000 0.000000 0.000000 0.000000 10.000000 
L_Toe2_01 0.000000 0.000000 0.000000 0.000000 0.000000 0.000000 10.000000 
L_Toe3_01 0.000000 0.000000 0.000000 0.000000 0.000000 0.000000 10.000000 
planeAlignerLeft 0.000000 0.000000 0.000000 0.000000 0.000000 0.000000 10.000000 
L_Toe1_02 0.000000 0.000000 0.000000 0.000000 0.000000 0.000000 10.000000 
L_Toe1_03 0.000000 0.000000 0.000000 0.000000 0.000000 0.000000 10.000000 
L_Toe2_02 0.000000 0.000000 0.000000 0.000000 0.000000 0.000000 10.000000 
L_Toe2_03 0.000000 0.000000 0.000000 0.000000 0.000000 0.000000 10.000000 
L_Toe3_02 0.000000 0.000000 0.000000 0.000000 0.000000 0.000000 10.000000 
L_Toe3_03 0.000000 0.000000 0.000000 0.000000 0.000000 0.000000 10.000000 
planeLockWeightLeft 0.000000 0.000000 0.000000 0.000000 0.000000 0.000000 10.000000 
R_Leg01 0.000000 0.000000 0.000000 0.000000 0.000000 0.000000 10.000000 
R_Leg02 0.000000 0.000000 0.000000 0.000000 0.000000 0.000000 10.000000 
R_Leg03 0.000000 0.000000 0.000000 0.000000 0.000000 0.000000 10.000000 
R_Foot 0.000000 0.000000 0.000000 0.000000 0.000000 0.000000 10.000000 
planeAlignerRight 0.000000 0.000000 0.000000 0.000000 0.000000 0.000000 10.000000 
R_Toe1_01 0.000000 0.000000 0.000000 0.000000 0.000000 0.000000 10.000000 
R_Toe2_01 0.000000 0.000000 0.000000 0.000000 0.000000 0.000000 10.000000 
R_Toe3_01 0.000000 0.000000 0.000000 0.000000 0.000000 0.000000 10.000000 
planeLockWeightRight 0.000000 0.000000 0.000000 0.000000 0.000000 0.000000 10.000000 
R_Toe1_02 0.000000 0.000000 0.000000 0.000000 0.000000 0.000000 10.000000 
R_Toe1_03 0.000000 0.000000 0.000000 0.000000 0.000000 0.000000 10.000000 
R_Toe2_02 0.000000 0.000000 0.000000 0.000000 0.000000 0.000000 10.000000 
R_Toe2_03 0.000000 0.000000 0.000000 0.000000 0.000000 0.000000 10.000000 
R_Toe3_02 0.000000 0.000000 0.000000 0.000000 0.000000 0.000000 10.000000 
R_Toe3_03 0.000000 0.000000 0.000000 0.000000 0.000000 0.000000 10.000000 
Rear_Leg02 0.000000 0.000000 0.000000 0.000000 0.000000 0.000000 10.000000 
Rear_Leg03 0.000000 0.000000 0.000000 0.000000 0.000000 0.000000 10.000000 
Rear_Leg04 0.000000 0.000000 0.000000 0.000000 0.000000 0.000000 10.000000 
Rear_Foot 0.000000 0.000000 0.000000 0.000000 0.000000 0.000000 10.000000 
planeAlignerCenter 0.000000 0.000000 0.000000 0.000000 0.000000 0.000000 10.000000 
Rear_Toe1_01 0.000000 0.000000 0.000000 0.000000 0.000000 0.000000 10.000000 
Rear_Toe2_01 0.000000 0.000000 0.000000 0.000000 0.000000 0.000000 10.000000 
Rear_Toe3_01 0.000000 0.000000 0.000000 0.000000 0.000000 0.000000 10.000000 
planeLockWeightCenter 0.000000 0.000000 0.000000 0.000000 0.000000 0.000000 10.000000 
Rear_Toe1_02 0.000000 0.000000 0.000000 0.000000 0.000000 0.000000 10.000000 
Rear_Toe1_03 0.000000 0.000000 0.000000 0.000000 0.000000 0.000000 10.000000 
Rear_Toe2_02 0.000000 0.000000 0.000000 0.000000 0.000000 0.000000 10.000000 
Rear_Toe2_03 0.000000 0.000000 0.000000 0.000000 0.000000 0.000000 10.000000 
Rear_Toe3_02 0.000000 0.000000 0.000000 0.000000 0.000000 0.000000 10.000000 
Rear_Toe3_03 0.000000 0.000000 0.000000 0.000000 0.000000 0.000000 10.000000 
Back_Bone 0.000000 0.000000 0.000000 0.000000 0.000000 0.000000 10.000000 
Head 0.000000 0.000000 0.000000 0.000000 0.000000 0.000000 10.000000 
Motor_Bone 0.000000 0.000000 0.000000 0.000000 0.000000 0.000000 10.000000 
Ping_Mechanism 0.000000 0.000000 0.000000 0.000000 0.000000 0.000000 10.000000 
BN_LookIK 0.000000 0.000000 0.000000 0.000000 0.000000 0.000000 10.000000 
bottomMouth 0.000000 0.000000 0.000000 0.000000 0.000000 0.000000 10.000000 
L_Mouth01 0.000000 0.000000 0.000000 0.000000 0.000000 0.000000 10.000000 
L_mouthFront 0.000000 0.000000 0.000000 0.000000 0.000000 0.000000 10.000000 
mouthGun 0.000000 0.000000 0.000000 0.000000 0.000000 0.000000 10.000000 
R_Mouth01 0.000000 0.000000 0.000000 0.000000 0.000000 0.000000 10.000000 
R_mouthFront 0.000000 0.000000 0.000000 0.000000 0.000000 0.000000 10.000000 
TopMouth 0.000000 0.000000 0.000000 0.000000 0.000000 0.000000 10.000000 
weapon_bone 0.000000 0.000000 0.000000 0.000000 0.000000 0.000000 10.000000 
#Beginning of Data. Separated by tabs
#Fr	Tx	Ty	Tz	Rx	Ry	Rz	SF
[Pinger_Root]
1 0.000000 0.000000 0.000000 -0.000075 -0.000000 -0.000020 0.000000
2 0.000000 0.000019 0.000000 -0.000075 -0.000000 -0.000020 0.000019
[Pelvis]
1 72.227875 916.536438 4432.233398 -100.363472 -85.972015 92.748032 4526.582520
2 63.033504 890.709229 4418.838379 -92.478554 -84.978745 85.023079 4508.156250
[L_Hip]
1 5.766392 125.831482 872.656799 160.158691 -45.484905 122.312202 881.701050
2 5.766392 125.831482 872.656799 160.129623 -45.738773 122.196770 881.701050
[R_Hip]
1 5.765438 125.836372 -872.654907 38.087841 49.812687 125.703735 881.699829
2 5.765438 125.836372 -872.654907 38.076542 50.048866 125.663910 881.699829
[Rear_Leg01]
1 -192.298416 -925.602966 -0.001907 169.680527 1.958474 -159.661636 945.367432
2 -192.298416 -925.602966 -0.001907 170.078659 2.594614 -159.305267 945.367432
[Spine1]
1 290.604584 5.007505 0.000477 7.265744 -0.619986 19.266817 290.647736
2 290.604584 5.007505 0.000477 6.931079 -1.047707 18.250301 290.647736
[L_Leg01]
1 761.932007 -0.002384 -0.069261 22.817181 -15.695028 -9.052058 761.932068
2 761.932007 -0.002384 -0.069261 21.629293 -17.029417 -8.176953 761.932068
[L_Leg02]
1 1441.140503 -0.000954 -0.000715 2.603748 -0.185718 -129.018967 1441.140503
2 1441.140503 -0.000954 -0.000715 2.593684 -0.189823 -129.106796 1441.140503
[L_Leg03]
1 1686.963989 -0.000715 -0.000954 -0.029945 0.014719 118.138969 1686.963989
2 1686.963989 -0.000715 -0.000954 -0.029110 0.013272 118.015846 1686.963989
[L_Foot]
1 3041.570068 -30.715107 11.297464 1.950223 13.083426 55.475243 3041.746094
2 3041.570068 -30.715107 11.297464 2.316342 13.067928 55.098431 3041.746094
[L_Toe1_01]
1 -188.216690 -224.732346 -21.137953 93.719086 -6.862507 -171.970444 293.899567
2 -188.216690 -224.732346 -21.137953 93.899467 -6.862665 -171.970276 293.899567
[L_Toe2_01]
1 200.746536 -219.926590 148.838394 -90.023987 -26.311703 -52.677628 332.896027
2 200.746536 -219.926590 148.838394 -89.898170 -26.274200 -52.676414 332.896027
[L_Toe3_01]
1 188.832520 -219.859131 -191.078659 -99.788055 13.839008 -67.673027 347.140900
2 188.832520 -219.859131 -191.078659 -100.007805 13.785265 -67.663177 347.140900
[planeAlignerLeft]
1 32.990112 -593.019287 101.088333 169.306686 -76.298271 89.968506 602.477478
2 32.990112 -593.019226 101.088203 169.306686 -76.298271 89.968506 602.477356
[L_Toe1_02]
1 413.761139 0.000477 0.000000 0.001384 -26.012932 0.001384 413.761139
2 413.761139 0.000477 0.000000 0.001384 -26.009304 0.001384 413.761139
[L_Toe1_03]
1 464.317322 0.000358 -0.000089 0.003734 53.359097 0.003734 464.317322
2 464.317322 0.000358 -0.000089 0.003734 53.359097 0.003734 464.317322
[L_Toe2_02]
1 342.235809 -0.000477 0.000238 0.001188 -72.402016 0.001188 342.235809
2 342.235809 -0.000477 0.000238 0.001188 -72.402000 0.001188 342.235809
[L_Toe2_03]
1 420.210846 -0.000715 0.000000 0.029090 85.375511 0.029090 420.210846
2 420.210846 -0.000715 0.000000 0.029090 85.375565 0.029090 420.210846
[L_Toe3_02]
1 329.270111 0.000954 0.000000 0.001178 -80.480331 0.001178 329.270111
2 329.270111 0.000954 0.000000 0.001178 -80.491035 0.001178 329.270111
[L_Toe3_03]
1 439.137451 -0.001907 0.000954 -179.995956 78.605698 -179.992447 439.137451
2 439.137451 -0.001907 0.000954 -179.995956 78.605698 -179.992447 439.137451
[planeLockWeightLeft]
1 -0.001068 0.000000 -0.000296 -0.011826 -0.004376 0.005620 0.001108
2 -0.001068 0.000000 -0.000296 -0.011826 -0.004376 0.005620 0.001108
[R_Leg01]
1 761.455627 -0.001907 -0.000358 120.155914 -8.176376 35.633469 761.455688
2 761.455627 -0.001907 -0.000358 120.813545 -13.891996 29.724249 761.455688
[R_Leg02]
1 1441.140625 0.000000 -0.000238 -1.339028 -0.199425 -118.901085 1441.140625
2 1441.140625 0.000000 -0.000238 -1.903705 -0.475786 -134.937531 1441.140625
[R_Leg03]
1 1686.963989 0.000954 0.001431 0.075761 -0.043586 131.407837 1686.963989
2 1686.963989 0.000954 0.001431 0.091842 -0.049409 135.013000 1686.963989
[R_Foot]
1 3041.560059 -30.531288 -11.204481 -0.529816 -24.684416 55.344288 3041.734131
2 3041.560059 -30.531288 -11.204481 0.771292 -24.373796 60.352085 3041.734131
[planeAlignerRight]
1 -127.147522 -574.019043 -312.903290 -36.577137 -71.339012 -64.343925 666.012573
2 -86.114807 -733.265320 -408.559479 -36.577137 -71.339012 -64.343925 843.809631
[R_Toe1_01]
1 -188.383347 -224.864899 21.052242 76.763535 -0.414595 -172.728699 294.101532
2 -188.383347 -224.864899 21.052242 76.163658 4.491243 -163.570496 294.101532
[R_Toe2_01]
1 200.637817 -220.002121 -148.787384 -91.743256 32.873833 -59.182163 332.857574
2 200.637817 -220.002121 -148.787384 -91.634537 32.687992 -58.910957 332.857574
[R_Toe3_01]
1 188.606735 -220.092957 191.126343 -73.225998 -8.456855 -73.756157 347.192566
2 188.606735 -220.092957 191.126343 -75.536659 -2.291825 -77.828445 347.192566
[planeLockWeightRight]
1 999.999695 0.000000 -0.000525 -0.011823 -0.004379 -0.000027 999.999695
2 1000.000244 0.000305 -0.000343 -0.011823 -0.004379 -0.000027 1000.000244
[R_Toe1_02]
1 413.762085 0.000477 -0.000119 0.001394 -24.659479 0.001394 413.762085
2 413.762085 0.000477 -0.000119 0.001393 -24.856989 0.001393 413.762085
[R_Toe1_03]
1 464.317810 0.000000 0.001088 0.006625 69.593369 0.006625 464.317810
2 464.317810 0.000000 0.001088 0.005851 66.857422 0.005851 464.317810
[R_Toe2_02]
1 342.234741 -0.000954 0.000238 0.001197 -67.215302 0.001197 342.234741
2 342.234741 -0.000954 0.000238 0.001327 -34.353958 0.001327 342.234741
[R_Toe2_03]
1 420.210846 0.000715 -0.000268 0.008231 73.605896 0.008231 420.210846
2 420.210846 0.000715 -0.000268 -0.001700 29.833614 0.006382 420.210846
[R_Toe3_02]
1 329.270355 -0.000477 -0.000954 0.001184 -74.518616 0.001184 329.270355
2 329.270355 -0.000477 -0.000954 -0.002415 -58.331764 -0.002415 329.270355
[R_Toe3_03]
1 439.137939 0.000238 0.001431 -0.011587 83.300278 -0.008085 439.137939
2 439.137939 0.000238 0.001431 0.011404 54.435455 0.007732 439.137939
[Rear_Leg02]
1 1162.777710 -0.029802 0.005960 0.634754 -2.916514 -123.692612 1162.777710
2 1162.777710 -0.029802 0.005960 0.439446 -1.656011 -123.230614 1162.777710
[Rear_Leg03]
1 607.192505 -0.013351 -0.073195 0.006472 -0.002119 64.461884 607.192505
2 607.192505 -0.013351 -0.073195 0.010631 -0.004809 65.035782 607.192505
[Rear_Leg04]
1 995.874512 -0.020504 -0.011921 -0.040559 -0.015048 58.562256 995.874573
2 995.874512 -0.020504 -0.011921 -0.043166 -0.018938 59.688068 995.874573
[Rear_Foot]
1 3096.176270 -0.067472 -0.041425 -143.807465 85.749458 48.945320 3096.176270
2 3096.176270 -0.067472 -0.041425 -151.271545 86.919106 40.759182 3096.176270
[planeAlignerCenter]
1 1.040096 -15.213013 -777.159851 12.240772 -0.001473 179.998184 777.309448
2 -9.721870 -27.120056 -786.416870 12.240772 -0.001473 179.998184 786.944397
[Rear_Toe1_01]
1 0.653352 83.966492 -371.173737 0.288091 41.914127 90.413170 380.553192
2 0.653352 83.966492 -371.173737 0.714231 42.383018 91.100410 380.553192
[Rear_Toe2_01]
1 178.200760 -294.826019 -362.060547 -7.196267 34.406261 -66.271294 499.765686
2 178.200760 -294.826019 -362.060547 -7.310733 34.749672 -67.119720 499.765686
[Rear_Toe3_01]
1 -153.359680 -308.780914 -362.060852 3.289418 33.518005 -112.540970 499.952881
2 -153.359680 -308.780914 -362.060852 3.202060 33.553272 -112.850868 499.952881
[planeLockWeightCenter]
1 1000.000488 0.000305 -0.000105 -0.011814 -0.004373 -0.000015 1000.000488
2 1000.000488 0.000329 -0.000107 -0.011814 -0.004373 -0.000015 1000.000488
[Rear_Toe1_02]
1 379.707825 0.194073 0.000477 -0.000767 -33.624729 0.000838 379.707855
2 379.707825 0.194073 0.000477 -0.000767 -33.624729 0.000838 379.707855
[Rear_Toe1_03]
1 500.129700 0.165701 0.000119 -0.000103 51.902481 0.007295 500.129761
2 500.129700 0.165701 0.000119 0.000015 53.032764 0.007389 500.129761
[Rear_Toe2_02]
1 340.494507 0.000238 -0.000954 0.001192 -69.854523 0.001192 340.494507
2 340.494507 0.000238 -0.000954 0.001194 -68.766281 0.001194 340.494507
[Rear_Toe2_03]
1 433.103577 0.000000 0.000238 0.006696 69.810326 0.006696 433.103546
2 433.103577 0.000000 0.000238 0.006200 68.178047 0.006200 433.103546
[Rear_Toe3_02]
1 340.494141 -0.000358 -0.000477 0.008288 -67.274704 -0.009460 340.494171
2 340.494141 -0.000358 -0.000477 0.007396 -64.703697 -0.008574 340.494171
[Rear_Toe3_03]
1 433.103577 0.001431 -0.000238 -0.000972 65.958984 -0.004547 433.103546
2 433.103577 0.001431 -0.000238 -0.000604 62.345928 -0.004205 433.103546
[Back_Bone]
1 1312.175781 -701.934692 0.000954 1.476979 0.001718 -85.608841 1488.125488
2 1312.175781 -701.934692 0.000954 1.466946 0.001855 -84.768867 1488.125488
[Head]
1 1406.159424 809.709290 0.001431 0.000625 -1.475623 7.768025 1622.625488
2 1406.159424 809.709290 0.001431 -0.003920 -1.445362 7.505330 1622.625488
[Motor_Bone]
1 1158.364380 -417.834747 0.000477 -0.095385 0.076104 -105.915703 1231.419434
2 1158.364380 -417.834747 0.000477 -1.501179 0.367122 -105.621094 1231.419434
[Ping_Mechanism]
1 1233.747437 -441.769379 -0.319109 0.000103 -0.000053 82.120995 1310.455322
2 1238.184204 -443.986206 2.892494 0.000103 -0.000053 82.120995 1315.382935
[BN_LookIK]
1 193.241119 1380.371704 -0.002861 0.000000 89.965736 -31.038179 1393.832153
2 193.241119 1380.371704 -0.002861 0.000000 89.965736 -31.038179 1393.832153
[bottomMouth]
1 -435.092926 615.759399 -0.000954 -0.000022 0.000016 73.527184 753.966492
2 -435.092926 615.759399 -0.000954 -0.000022 0.000016 73.527184 753.966492
[L_Mouth01]
1 554.440979 7.658243 838.222046 150.204178 23.759130 109.605339 1005.027161
2 554.440979 7.658243 838.222046 150.204178 23.759130 109.605339 1005.027161
[L_mouthFront]
1 551.629089 934.514771 339.150421 0.000081 2.804060 79.119301 1136.941284
2 551.629089 934.514771 339.150421 0.000081 2.804060 79.119301 1136.941284
[mouthGun]
1 55.332661 1627.420898 0.000000 0.000023 0.000009 -11.038128 1628.361328
2 55.332661 1627.420898 0.000000 0.000023 0.000009 -11.038128 1628.361328
[R_Mouth01]
1 554.442383 7.659197 -838.223938 29.795891 -23.759109 109.605331 1005.029541
2 554.442383 7.659197 -838.223938 29.795891 -23.759109 109.605331 1005.029541
[R_mouthFront]
1 551.629089 934.514282 -339.151367 0.000029 -2.803930 79.119133 1136.941162
2 551.629089 934.514282 -339.151367 0.000029 -2.803930 79.119133 1136.941162
[TopMouth]
1 461.269867 -56.106091 -0.008583 -0.000059 -0.000268 92.025169 464.669525
2 461.269867 -56.106091 -0.008583 -0.000059 -0.000268 92.025169 464.669525
[weapon_bone]
1 -987.239868 1448.372803 0.001431 0.000000 89.965736 -31.038221 1752.833740
2 -987.239868 1448.372803 0.001431 0.000000 89.965736 -31.038221 1752.833740
